<mxfile host="app.diagrams.net" modified="2023-07-08T08:56:04.568Z" agent="Mozilla/5.0 (Windows NT 10.0; Win64; x64) AppleWebKit/537.36 (KHTML, like Gecko) Chrome/114.0.0.0 Safari/537.36" etag="ErQNzQjE57N3K2aqb2VN" version="21.5.2" type="device">
  <diagram id="C5RBs43oDa-KdzZeNtuy" name="Page-1">
    <mxGraphModel dx="1050" dy="581" grid="1" gridSize="10" guides="1" tooltips="1" connect="1" arrows="1" fold="1" page="1" pageScale="1" pageWidth="827" pageHeight="1169" math="0" shadow="0">
      <root>
        <mxCell id="WIyWlLk6GJQsqaUBKTNV-0" />
        <mxCell id="WIyWlLk6GJQsqaUBKTNV-1" parent="WIyWlLk6GJQsqaUBKTNV-0" />
        <mxCell id="aOkk-NtaV6RdPrOmla6O-0" value="" style="rounded=0;whiteSpace=wrap;html=1;" parent="WIyWlLk6GJQsqaUBKTNV-1" vertex="1">
          <mxGeometry x="80" y="120" width="480" height="60" as="geometry" />
        </mxCell>
        <mxCell id="aOkk-NtaV6RdPrOmla6O-2" value="1" style="rounded=1;whiteSpace=wrap;html=1;" parent="WIyWlLk6GJQsqaUBKTNV-1" vertex="1">
          <mxGeometry x="140" y="120" width="60" height="60" as="geometry" />
        </mxCell>
        <mxCell id="aOkk-NtaV6RdPrOmla6O-3" value="2" style="rounded=1;whiteSpace=wrap;html=1;" parent="WIyWlLk6GJQsqaUBKTNV-1" vertex="1">
          <mxGeometry x="80" y="120" width="60" height="60" as="geometry" />
        </mxCell>
        <mxCell id="aOkk-NtaV6RdPrOmla6O-4" value="3" style="rounded=1;whiteSpace=wrap;html=1;" parent="WIyWlLk6GJQsqaUBKTNV-1" vertex="1">
          <mxGeometry x="320" y="120" width="60" height="60" as="geometry" />
        </mxCell>
        <mxCell id="QWiEtez_0Oxuyw9gHLqD-0" value="4" style="rounded=1;whiteSpace=wrap;html=1;" vertex="1" parent="WIyWlLk6GJQsqaUBKTNV-1">
          <mxGeometry x="260" y="120" width="60" height="60" as="geometry" />
        </mxCell>
        <mxCell id="QWiEtez_0Oxuyw9gHLqD-1" value="5" style="rounded=1;whiteSpace=wrap;html=1;" vertex="1" parent="WIyWlLk6GJQsqaUBKTNV-1">
          <mxGeometry x="200" y="120" width="60" height="60" as="geometry" />
        </mxCell>
        <mxCell id="QWiEtez_0Oxuyw9gHLqD-2" value="" style="rounded=0;whiteSpace=wrap;html=1;" vertex="1" parent="WIyWlLk6GJQsqaUBKTNV-1">
          <mxGeometry x="80" y="360" width="480" height="60" as="geometry" />
        </mxCell>
        <mxCell id="QWiEtez_0Oxuyw9gHLqD-3" value="1" style="rounded=1;whiteSpace=wrap;html=1;" vertex="1" parent="WIyWlLk6GJQsqaUBKTNV-1">
          <mxGeometry x="140" y="360" width="60" height="60" as="geometry" />
        </mxCell>
        <mxCell id="QWiEtez_0Oxuyw9gHLqD-4" value="2" style="rounded=1;whiteSpace=wrap;html=1;" vertex="1" parent="WIyWlLk6GJQsqaUBKTNV-1">
          <mxGeometry x="80" y="360" width="60" height="60" as="geometry" />
        </mxCell>
        <mxCell id="QWiEtez_0Oxuyw9gHLqD-5" value="3" style="rounded=1;whiteSpace=wrap;html=1;" vertex="1" parent="WIyWlLk6GJQsqaUBKTNV-1">
          <mxGeometry x="320" y="360" width="60" height="60" as="geometry" />
        </mxCell>
        <mxCell id="QWiEtez_0Oxuyw9gHLqD-6" value="4" style="rounded=1;whiteSpace=wrap;html=1;" vertex="1" parent="WIyWlLk6GJQsqaUBKTNV-1">
          <mxGeometry x="260" y="360" width="60" height="60" as="geometry" />
        </mxCell>
        <mxCell id="QWiEtez_0Oxuyw9gHLqD-7" value="5" style="rounded=1;whiteSpace=wrap;html=1;" vertex="1" parent="WIyWlLk6GJQsqaUBKTNV-1">
          <mxGeometry x="200" y="360" width="60" height="60" as="geometry" />
        </mxCell>
        <mxCell id="QWiEtez_0Oxuyw9gHLqD-8" value="" style="rounded=0;whiteSpace=wrap;html=1;" vertex="1" parent="WIyWlLk6GJQsqaUBKTNV-1">
          <mxGeometry x="80" y="600" width="480" height="60" as="geometry" />
        </mxCell>
        <mxCell id="QWiEtez_0Oxuyw9gHLqD-9" value="1" style="rounded=1;whiteSpace=wrap;html=1;" vertex="1" parent="WIyWlLk6GJQsqaUBKTNV-1">
          <mxGeometry x="140" y="600" width="60" height="60" as="geometry" />
        </mxCell>
        <mxCell id="QWiEtez_0Oxuyw9gHLqD-10" value="2" style="rounded=1;whiteSpace=wrap;html=1;" vertex="1" parent="WIyWlLk6GJQsqaUBKTNV-1">
          <mxGeometry x="80" y="600" width="60" height="60" as="geometry" />
        </mxCell>
        <mxCell id="QWiEtez_0Oxuyw9gHLqD-11" value="3" style="rounded=1;whiteSpace=wrap;html=1;" vertex="1" parent="WIyWlLk6GJQsqaUBKTNV-1">
          <mxGeometry x="320" y="600" width="60" height="60" as="geometry" />
        </mxCell>
        <mxCell id="QWiEtez_0Oxuyw9gHLqD-12" value="4" style="rounded=1;whiteSpace=wrap;html=1;" vertex="1" parent="WIyWlLk6GJQsqaUBKTNV-1">
          <mxGeometry x="260" y="600" width="60" height="60" as="geometry" />
        </mxCell>
        <mxCell id="QWiEtez_0Oxuyw9gHLqD-13" value="5" style="rounded=1;whiteSpace=wrap;html=1;" vertex="1" parent="WIyWlLk6GJQsqaUBKTNV-1">
          <mxGeometry x="200" y="600" width="60" height="60" as="geometry" />
        </mxCell>
      </root>
    </mxGraphModel>
  </diagram>
</mxfile>
